<svg id="Calque_1" data-name="Calque 1" xmlns="http://www.w3.org/2000/svg" viewBox="0 0 32 32"><defs><style>.cls-1{fill:#fa0;}</style></defs><title>favicon_wikipain</title><rect class="cls-1" x="14.92" y="16.29" width="7.04" height="1.01" rx="0.19"/><rect class="cls-1" x="14.92" y="14.28" width="7.04" height="1.01" rx="0.19"/><path class="cls-1" d="M13.91,22.32a1,1,0,0,0-1,1,1,1,0,0,0,1,1h9a11.24,11.24,0,0,1,0-2Z"/><path class="cls-1" d="M30.51,12A14,14,0,0,0,28,8.49,13.81,13.81,0,0,0,14.24,5L13.11,3.92l.39-.38a1.64,1.64,0,0,0,0-2.3L12.73.48a1.62,1.62,0,0,0-2.3,0l-9.95,10a1.62,1.62,0,0,0,0,2.3l.76.76a1.62,1.62,0,0,0,2.3,0l.38-.38L5,14.23A13.78,13.78,0,1,0,30.51,12ZM25,21.57a.74.74,0,0,1-.28.58,7.13,7.13,0,0,0,0,2.35.76.76,0,0,1,.28.59v.5a.76.76,0,0,1-.76.76H13.91a3,3,0,0,1-3-3V13.27a3,3,0,0,1,3-3H24.22A.76.76,0,0,1,25,11Z"/></svg>