<svg id="Calque_1" data-name="Calque 1" xmlns="http://www.w3.org/2000/svg" viewBox="0 0 32 32"><defs><style>.cls-1,.cls-2{fill:#f2f2f2;}.cls-2{fill-rule:evenodd;}</style></defs><title>wikipain</title><path class="cls-1" d="M8.27,27.16,4.84,23.73a1.19,1.19,0,0,0-1.65.14l-.89.9L7.23,29.7l.9-.9A1.18,1.18,0,0,0,8.27,27.16ZM10.14,22,10,21.86A1.19,1.19,0,0,0,8.34,22l-.89.9L9.1,24.55l.89-.9A1.17,1.17,0,0,0,10.14,22ZM3,28.88a2.65,2.65,0,0,1,0-3.44L7.23,29.7l.9-.9a1.18,1.18,0,0,0,.14-1.64L3.52,22.41a2.63,2.63,0,0,1,0-3.44L9.1,24.55l.89-.9A1.17,1.17,0,0,0,10.14,22L4.08,16a2.06,2.06,0,0,1-.48-.73,3,3,0,0,1,.74-3l.57-.56,13.3,13.3s0-.08,0-.12c0-.22,0-.42.05-.62V24a1.08,1.08,0,0,0,0-.18v-.27s0-.09,0-.13h0v0h0s0-.1,0-.14v-.14h0c0-.05,0-.09,0-.13V22.9h0v0l0-.17v-.06h0v-.05h0v0l-.06-.26A3,3,0,0,0,18,22l-.06-.19h0s0-.07,0-.11l0,0h0l0-.08,0-.09,0,0h0v0l-.11-.23a.41.41,0,0,1-.05-.09l-.13-.22h0l-.09-.14s0,0,0,0h0l-.09-.12a.18.18,0,0,0,0-.07h0a.74.74,0,0,0-.09-.12l0,0,0,0L17,20.17l-.09-.11-.22-.24L6.26,9.41a.61.61,0,0,0-.15-.12l-.05,0h0l-.18-.1-.19-.06h0l-.06,0H5.07a1.28,1.28,0,0,0-.27.05,1.34,1.34,0,0,0-.26.09l0,0h0l-.08,0,0,0a1.91,1.91,0,0,0-.42.33l-1,1-.12.12A5.33,5.33,0,0,0,1.69,17q.15.24.33.48A5.9,5.9,0,0,0,.55,21.11a4.27,4.27,0,0,0,.92,2.79A6.22,6.22,0,0,0,.23,26.14a4.48,4.48,0,0,0,1,4.53l.15.14a4.48,4.48,0,0,0,4.53,1Zm13.14.34.11-.12L16.3,29l.17-.2.06-.09.18-.22,0,0,.05-.07a2.21,2.21,0,0,1-.73-.48L15.13,27l0,0,0,0,0,0h0l0,.06-.07.09,0,0-.11.15h0l0,0-.09.11,0,0-.06.08s0,0-.05.05l-.17.18-3.45,3.44A5.79,5.79,0,0,0,14.56,30a3.21,3.21,0,0,0,.48.34l.8-.81Zm-6-7.21L10,21.86A1.19,1.19,0,0,0,8.34,22l-.89.9L9.1,24.55l.89-.9A1.17,1.17,0,0,0,10.14,22ZM8.27,27.16,4.84,23.73a1.19,1.19,0,0,0-1.65.14l-.89.9L7.23,29.7l.9-.9A1.18,1.18,0,0,0,8.27,27.16Z"/><path class="cls-1" d="M22.71,27.67l0-.05,0-.08v0a.08.08,0,0,1,0,0,2.67,2.67,0,0,0,.09-.26,1.28,1.28,0,0,0,.05-.27h0a.43.43,0,0,0,0-.05v0s0-.08,0-.11v0h0v0s0,0,0,0h0a1,1,0,0,0,0-.17s0,0,0,0v0s0,0,0-.06,0,0,0,0a.69.69,0,0,0-.07-.19,1.51,1.51,0,0,0-.09-.18v0l0,0a.65.65,0,0,0-.13-.16l-10.4-10.4-.24-.22a.52.52,0,0,0-.11-.1.18.18,0,0,0-.07,0l0,0,0,0-.12-.1h0l-.07-.05-.12-.09h0l0,0-.14-.09h0L11,14.41l-.1-.05-.22-.11h0l0,0-.09,0-.08,0h0l0,0-.12,0h0L10,14l-.32-.1-.27-.06H9.3l-.17,0H9l-.13,0H7.81a4.44,4.44,0,0,0-.62,0l-.12,0,13.3,13.3-.56.57a3,3,0,0,1-3,.74,2.21,2.21,0,0,1-.73-.48L10,21.86A1.19,1.19,0,0,0,8.34,22l-.89.9L13,28.47a2.65,2.65,0,0,1-3.45,0L4.84,23.73a1.19,1.19,0,0,0-1.65.14l-.89.9L6.56,29a2.65,2.65,0,0,1-3.44,0L.23,26.14a4.48,4.48,0,0,0,1,4.53l.15.14a4.48,4.48,0,0,0,4.53,1A6.31,6.31,0,0,0,8.1,30.53a4.26,4.26,0,0,0,2.79.91A5.79,5.79,0,0,0,14.56,30a3.21,3.21,0,0,0,.48.34,5.33,5.33,0,0,0,6.21-1.09l.12-.12,1-1A1.91,1.91,0,0,0,22.71,27.67ZM4.08,16a2.06,2.06,0,0,1-.48-.73l-.07,0,0,0-.23.17a.27.27,0,0,1-.08.07L3,15.7l-.09.08-.12.11-.29.27-.8.8q.15.24.33.48A5.9,5.9,0,0,0,.55,21.11L4,17.66l.18-.17.05,0,.08-.06,0,0,.11-.09,0,0h0l.15-.12h0L4.77,17l.07,0h0l.06,0,0,0,.06,0Z"/><path class="cls-2" d="M27.17,21a14.86,14.86,0,0,1-5.6,3.73l-.52.16a9.93,9.93,0,0,1-1.7.3c-.28,0-.57,0-.85,0L6.78,13.5a6,6,0,0,1,0-.85,10,10,0,0,1,.47-2.22c.11-.33.23-.65.37-1a15.84,15.84,0,0,1,3.27-4.55,1.74,1.74,0,0,1,1.14-.55,1.52,1.52,0,0,1,1,.33l.1-.1a13.52,13.52,0,0,1,2.9-2.44A1.71,1.71,0,0,1,17.49,2a1.58,1.58,0,0,1,.72.61l.26-.25A15.88,15.88,0,0,1,21.54.21a1.55,1.55,0,0,1,2.09.51q.36.63.69,1.29a7,7,0,0,1,3.79-.48c.28,0,.57.07.86.08A1.5,1.5,0,0,1,30.39,3c0,.53.11,1,.14,1.57A6.45,6.45,0,0,1,30,7.68l.17.08a8.47,8.47,0,0,1,1.28.73,1.53,1.53,0,0,1,.36,1.95,15.34,15.34,0,0,1-2.39,3.35l.06,0a1.49,1.49,0,0,1,.64,1.31,2.24,2.24,0,0,1-.44,1.08,13.51,13.51,0,0,1-2.35,2.71s0,0,0,.05A1.6,1.6,0,0,1,27.17,21Z"/></svg>